<svg xmlns="http://www.w3.org/2000/svg" viewBox="0 0 128 128" fill="none">
  <!-- Outer diamond -->
  <path d="M64 6 L122 64 L64 122 L6 64 Z" stroke="#8b5cf6" stroke-width="1.5" fill="none" opacity="0.2"/>
  <!-- Middle diamond -->
  <path d="M64 20 L108 64 L64 108 L20 64 Z" stroke="#a78bfa" stroke-width="1" fill="#1a1625" opacity="0.5"/>
  <!-- Inner diamond -->
  <path d="M64 36 L92 64 L64 92 L36 64 Z" stroke="#8b5cf6" stroke-width="1.5" fill="none" opacity="0.35"/>
  <!-- Terminal cursor > -->
  <path d="M42 44 L62 64 L42 84" stroke="#8b5cf6" stroke-width="4.5" stroke-linecap="round" stroke-linejoin="round" fill="none"/>
  <!-- Underscore _ -->
  <path d="M68 78 L88 78" stroke="#a78bfa" stroke-width="4" stroke-linecap="round"/>
  <!-- Vertical energy line above -->
  <path d="M64 36 L64 42" stroke="#c4b5fd" stroke-width="2" opacity="0.5" stroke-linecap="round"/>
  <!-- Energy rays -->
  <path d="M64 6 L64 20" stroke="#c4b5fd" stroke-width="1" opacity="0.4"/>
  <path d="M122 64 L108 64" stroke="#c4b5fd" stroke-width="1" opacity="0.4"/>
  <path d="M64 108 L64 122" stroke="#c4b5fd" stroke-width="1" opacity="0.4"/>
  <path d="M20 64 L6 64" stroke="#c4b5fd" stroke-width="1" opacity="0.4"/>
  <!-- Corner dots -->
  <circle cx="64" cy="6" r="2" fill="#c4b5fd" opacity="0.5"/>
  <circle cx="122" cy="64" r="2" fill="#c4b5fd" opacity="0.5"/>
  <circle cx="64" cy="122" r="2" fill="#c4b5fd" opacity="0.5"/>
  <circle cx="6" cy="64" r="2" fill="#c4b5fd" opacity="0.5"/>
</svg>
